<?xml version="1.0" encoding="UTF-8" standalone="no"?>
<!-- Created with Inkscape (http://www.inkscape.org/) -->

<svg
   xmlns:dc="http://purl.org/dc/elements/1.1/"
   xmlns:cc="http://creativecommons.org/ns#"
   xmlns:rdf="http://www.w3.org/1999/02/22-rdf-syntax-ns#"
   xmlns:svg="http://www.w3.org/2000/svg"
   xmlns="http://www.w3.org/2000/svg"
   xmlns:sodipodi="http://sodipodi.sourceforge.net/DTD/sodipodi-0.dtd"
   xmlns:inkscape="http://www.inkscape.org/namespaces/inkscape"
   width="297mm"
   height="210mm"
   viewBox="0 0 1052.3622 744.09448"
   id="svg2"
   version="1.1"
   inkscape:version="0.91 r13725"
   sodipodi:docname="Block_diagram_memory_running_light.svg">
  <defs
     id="defs4" />
  <sodipodi:namedview
     id="base"
     pagecolor="#ffffff"
     bordercolor="#666666"
     borderopacity="1.0"
     inkscape:pageopacity="0.0"
     inkscape:pageshadow="2"
     inkscape:zoom="0.98994949"
     inkscape:cx="527.76776"
     inkscape:cy="518.35293"
     inkscape:document-units="px"
     inkscape:current-layer="layer1"
     showgrid="true"
     inkscape:window-width="1858"
     inkscape:window-height="1177"
     inkscape:window-x="54"
     inkscape:window-y="-8"
     inkscape:window-maximized="1"
     inkscape:object-nodes="true">
    <inkscape:grid
       type="xygrid"
       id="grid8068" />
  </sodipodi:namedview>
  <metadata
     id="metadata7">
    <rdf:RDF>
      <cc:Work
         rdf:about="">
        <dc:format>image/svg+xml</dc:format>
        <dc:type
           rdf:resource="http://purl.org/dc/dcmitype/StillImage" />
        <dc:title></dc:title>
      </cc:Work>
    </rdf:RDF>
  </metadata>
  <g
     inkscape:label="Ebene 1"
     inkscape:groupmode="layer"
     id="layer1"
     transform="translate(0,-308.26772)">
    <rect
       style="color:#000000;clip-rule:nonzero;display:inline;overflow:visible;visibility:visible;opacity:1;isolation:auto;mix-blend-mode:normal;color-interpolation:sRGB;color-interpolation-filters:linearRGB;solid-color:#000000;solid-opacity:1;fill:#ffccaa;fill-opacity:0.1254902;fill-rule:evenodd;stroke:#000000;stroke-width:1;stroke-linecap:butt;stroke-linejoin:miter;stroke-miterlimit:4;stroke-dasharray:none;stroke-dashoffset:0;stroke-opacity:1;color-rendering:auto;image-rendering:auto;shape-rendering:auto;text-rendering:auto;enable-background:accumulate"
       id="rect8070"
       width="708.66144"
       height="566.92914"
       x="212.59842"
       y="379.13385" />
    <text
       xml:space="preserve"
       style="font-style:normal;font-weight:normal;font-size:12.5px;line-height:125%;font-family:sans-serif;letter-spacing:0px;word-spacing:0px;fill:#000000;fill-opacity:1;stroke:none;stroke-width:1px;stroke-linecap:butt;stroke-linejoin:miter;stroke-opacity:1"
       x="213.29762"
       y="372.76196"
       id="text8072"
       sodipodi:linespacing="125%"><tspan
         sodipodi:role="line"
         id="tspan8074"
         x="213.29762"
         y="372.76196">C5G_Toplevel.sv</tspan></text>
    <path
       style="fill:none;fill-rule:evenodd;stroke:#000000;stroke-width:1px;stroke-linecap:butt;stroke-linejoin:miter;stroke-opacity:1"
       d="m 212.59843,414.56693 -124.015753,0"
       id="path8076"
       inkscape:connector-curvature="0" />
    <text
       xml:space="preserve"
       style="font-style:normal;font-weight:normal;font-size:12.5px;line-height:125%;font-family:sans-serif;letter-spacing:0px;word-spacing:0px;fill:#000000;fill-opacity:1;stroke:none;stroke-width:1px;stroke-linecap:butt;stroke-linejoin:miter;stroke-opacity:1"
       x="89.235695"
       y="412.66623"
       id="text8078"
       sodipodi:linespacing="125%"><tspan
         sodipodi:role="line"
         id="tspan8080"
         x="89.235695"
         y="412.66623">CLOCK_50_B5B</tspan></text>
    <path
       inkscape:connector-curvature="0"
       id="path8130"
       d="m 212.59843,396.85038 -124.015753,0"
       style="fill:none;fill-rule:evenodd;stroke:#000000;stroke-width:1px;stroke-linecap:butt;stroke-linejoin:miter;stroke-opacity:1" />
    <text
       sodipodi:linespacing="125%"
       id="text8132"
       y="394.94974"
       x="89.592834"
       style="font-style:normal;font-weight:normal;font-size:12.5px;line-height:125%;font-family:sans-serif;letter-spacing:0px;word-spacing:0px;fill:#000000;fill-opacity:1;stroke:none;stroke-width:1px;stroke-linecap:butt;stroke-linejoin:miter;stroke-opacity:1"
       xml:space="preserve"><tspan
         y="394.94974"
         x="89.592834"
         id="tspan8134"
         sodipodi:role="line">CPU_RESET_n</tspan></text>
    <path
       inkscape:connector-curvature="0"
       id="path8136"
       d="m 212.59843,574.01578 -124.015753,0"
       style="fill:none;fill-rule:evenodd;stroke:#000000;stroke-width:2;stroke-linecap:butt;stroke-linejoin:miter;stroke-opacity:1;stroke-miterlimit:4;stroke-dasharray:none" />
    <text
       sodipodi:linespacing="125%"
       id="text8138"
       y="572.11505"
       x="89.235695"
       style="font-style:normal;font-weight:normal;font-size:12.5px;line-height:125%;font-family:sans-serif;letter-spacing:0px;word-spacing:0px;fill:#000000;fill-opacity:1;stroke:none;stroke-width:1px;stroke-linecap:butt;stroke-linejoin:miter;stroke-opacity:1"
       xml:space="preserve"><tspan
         y="572.11505"
         x="89.235695"
         id="tspan8140"
         sodipodi:role="line">KEY[3:0]</tspan></text>
    <path
       style="fill:none;fill-rule:evenodd;stroke:#000000;stroke-width:2;stroke-linecap:butt;stroke-linejoin:miter;stroke-opacity:1;stroke-miterlimit:4;stroke-dasharray:none"
       d="m 212.59843,609.44885 -124.015753,0"
       id="path8142"
       inkscape:connector-curvature="0" />
    <text
       xml:space="preserve"
       style="font-style:normal;font-weight:normal;font-size:12.5px;line-height:125%;font-family:sans-serif;letter-spacing:0px;word-spacing:0px;fill:#000000;fill-opacity:1;stroke:none;stroke-width:1px;stroke-linecap:butt;stroke-linejoin:miter;stroke-opacity:1"
       x="89.235695"
       y="607.54822"
       id="text8144"
       sodipodi:linespacing="125%"><tspan
         sodipodi:role="line"
         id="tspan8146"
         x="89.235695"
         y="607.54822">SW[9:0]</tspan></text>
    <path
       style="fill:none;fill-rule:evenodd;stroke:#000000;stroke-width:2;stroke-linecap:butt;stroke-linejoin:miter;stroke-miterlimit:4;stroke-dasharray:none;stroke-opacity:1"
       d="m 921.25984,839.76377 124.01576,0"
       id="path8148"
       inkscape:connector-curvature="0" />
    <text
       xml:space="preserve"
       style="font-style:normal;font-weight:normal;font-size:12.5px;line-height:125%;font-family:sans-serif;letter-spacing:0px;word-spacing:0px;fill:#000000;fill-opacity:1;stroke:none;stroke-width:1px;stroke-linecap:butt;stroke-linejoin:miter;stroke-opacity:1"
       x="930.93402"
       y="836.73334"
       id="text8150"
       sodipodi:linespacing="125%"><tspan
         sodipodi:role="line"
         id="tspan8152"
         x="930.93402"
         y="836.73334">HEX0[6:0]</tspan></text>
    <path
       inkscape:connector-curvature="0"
       id="path8154"
       d="m 921.25984,857.48031 124.01576,0"
       style="fill:none;fill-rule:evenodd;stroke:#000000;stroke-width:2;stroke-linecap:butt;stroke-linejoin:miter;stroke-miterlimit:4;stroke-dasharray:none;stroke-opacity:1" />
    <text
       sodipodi:linespacing="125%"
       id="text8156"
       y="854.44989"
       x="930.93402"
       style="font-style:normal;font-weight:normal;font-size:12.5px;line-height:125%;font-family:sans-serif;letter-spacing:0px;word-spacing:0px;fill:#000000;fill-opacity:1;stroke:none;stroke-width:1px;stroke-linecap:butt;stroke-linejoin:miter;stroke-opacity:1"
       xml:space="preserve"><tspan
         y="854.44989"
         x="930.93402"
         id="tspan8158"
         sodipodi:role="line">HEX1[6:0]</tspan></text>
    <path
       style="fill:none;fill-rule:evenodd;stroke:#000000;stroke-width:2;stroke-linecap:butt;stroke-linejoin:miter;stroke-miterlimit:4;stroke-dasharray:none;stroke-opacity:1"
       d="m 921.25984,609.44884 124.01576,0"
       id="path8172"
       inkscape:connector-curvature="0" />
    <text
       xml:space="preserve"
       style="font-style:normal;font-weight:normal;font-size:12.5px;line-height:125%;font-family:sans-serif;letter-spacing:0px;word-spacing:0px;fill:#000000;fill-opacity:1;stroke:none;stroke-width:1px;stroke-linecap:butt;stroke-linejoin:miter;stroke-opacity:1"
       x="930.93402"
       y="606.41821"
       id="text8174"
       sodipodi:linespacing="125%"><tspan
         sodipodi:role="line"
         id="tspan8176"
         x="930.93402"
         y="606.41821">LEDG[7:0]</tspan></text>
    <path
       inkscape:connector-curvature="0"
       id="path8178"
       d="m 921.25984,662.59845 124.01576,0"
       style="fill:none;fill-rule:evenodd;stroke:#000000;stroke-width:2;stroke-linecap:butt;stroke-linejoin:miter;stroke-miterlimit:4;stroke-dasharray:none;stroke-opacity:1" />
    <text
       sodipodi:linespacing="125%"
       id="text8180"
       y="659.56781"
       x="930.93402"
       style="font-style:normal;font-weight:normal;font-size:12.5px;line-height:125%;font-family:sans-serif;letter-spacing:0px;word-spacing:0px;fill:#000000;fill-opacity:1;stroke:none;stroke-width:1px;stroke-linecap:butt;stroke-linejoin:miter;stroke-opacity:1"
       xml:space="preserve"><tspan
         y="659.56781"
         x="930.93402"
         id="tspan8182"
         sodipodi:role="line">LEDR[9:0]</tspan></text>
    <path
       inkscape:connector-curvature="0"
       id="path8184"
       d="m 212.59843,432.28347 -124.015753,0"
       style="fill:none;fill-rule:evenodd;stroke:#000000;stroke-width:1px;stroke-linecap:butt;stroke-linejoin:miter;stroke-opacity:1" />
    <text
       sodipodi:linespacing="125%"
       id="text8186"
       y="430.38275"
       x="89.235695"
       style="font-style:normal;font-weight:normal;font-size:12.5px;line-height:125%;font-family:sans-serif;letter-spacing:0px;word-spacing:0px;fill:#000000;fill-opacity:1;stroke:none;stroke-width:1px;stroke-linecap:butt;stroke-linejoin:miter;stroke-opacity:1"
       xml:space="preserve"><tspan
         y="430.38275"
         x="89.235695"
         id="tspan8188"
         sodipodi:role="line">CLOCK_50_B6A</tspan></text>
    <path
       style="fill:none;fill-rule:evenodd;stroke:#000000;stroke-width:1px;stroke-linecap:butt;stroke-linejoin:miter;stroke-opacity:1"
       d="m 212.59843,450.00001 -124.015753,0"
       id="path8190"
       inkscape:connector-curvature="0" />
    <text
       xml:space="preserve"
       style="font-style:normal;font-weight:normal;font-size:12.5px;line-height:125%;font-family:sans-serif;letter-spacing:0px;word-spacing:0px;fill:#000000;fill-opacity:1;stroke:none;stroke-width:1px;stroke-linecap:butt;stroke-linejoin:miter;stroke-opacity:1"
       x="89.235695"
       y="448.09927"
       id="text8192"
       sodipodi:linespacing="125%"><tspan
         sodipodi:role="line"
         id="tspan8194"
         x="89.235695"
         y="448.09927">CLOCK_50_B7A</tspan></text>
    <path
       inkscape:connector-curvature="0"
       id="path8196"
       d="m 212.59843,467.71655 -124.015753,0"
       style="fill:none;fill-rule:evenodd;stroke:#000000;stroke-width:1px;stroke-linecap:butt;stroke-linejoin:miter;stroke-opacity:1" />
    <text
       sodipodi:linespacing="125%"
       id="text8198"
       y="465.8158"
       x="89.235695"
       style="font-style:normal;font-weight:normal;font-size:12.5px;line-height:125%;font-family:sans-serif;letter-spacing:0px;word-spacing:0px;fill:#000000;fill-opacity:1;stroke:none;stroke-width:1px;stroke-linecap:butt;stroke-linejoin:miter;stroke-opacity:1"
       xml:space="preserve"><tspan
         y="465.8158"
         x="89.235695"
         id="tspan8200"
         sodipodi:role="line">CLOCK_50_B8A</tspan></text>
    <path
       style="fill:none;fill-rule:evenodd;stroke:#000000;stroke-width:1px;stroke-linecap:butt;stroke-linejoin:miter;stroke-opacity:1"
       d="m 212.59843,485.43309 -124.015753,0"
       id="path8202"
       inkscape:connector-curvature="0" />
    <text
       xml:space="preserve"
       style="font-style:normal;font-weight:normal;font-size:12.5px;line-height:125%;font-family:sans-serif;letter-spacing:0px;word-spacing:0px;fill:#000000;fill-opacity:1;stroke:none;stroke-width:1px;stroke-linecap:butt;stroke-linejoin:miter;stroke-opacity:1"
       x="89.235695"
       y="483.53232"
       id="text8204"
       sodipodi:linespacing="125%"><tspan
         sodipodi:role="line"
         id="tspan8206"
         x="89.235695"
         y="483.53232">CLOCK_125_p</tspan></text>
    <path
       style="fill:none;fill-rule:evenodd;stroke:#000000;stroke-width:1px;stroke-linecap:butt;stroke-linejoin:miter;stroke-opacity:1"
       d="m 212.59843,396.85039 70.86614,0"
       id="path8336"
       inkscape:connector-curvature="0" />
    <text
       xml:space="preserve"
       style="font-style:normal;font-weight:normal;font-size:12.5px;line-height:125%;font-family:sans-serif;letter-spacing:0px;word-spacing:0px;fill:#000000;fill-opacity:1;stroke:none;stroke-width:1px;stroke-linecap:butt;stroke-linejoin:miter;stroke-opacity:1"
       x="215.89653"
       y="394.94974"
       id="text8338"
       sodipodi:linespacing="125%"><tspan
         sodipodi:role="line"
         id="tspan8340"
         x="215.89653"
         y="394.94974">rst_n</tspan></text>
    <path
       inkscape:connector-curvature="0"
       id="path8342"
       d="m 212.59843,414.56693 70.86614,0"
       style="fill:none;fill-rule:evenodd;stroke:#000000;stroke-width:1px;stroke-linecap:butt;stroke-linejoin:miter;stroke-opacity:1" />
    <text
       sodipodi:linespacing="125%"
       id="text8344"
       y="412.66626"
       x="215.89653"
       style="font-style:normal;font-weight:normal;font-size:12.5px;line-height:125%;font-family:sans-serif;letter-spacing:0px;word-spacing:0px;fill:#000000;fill-opacity:1;stroke:none;stroke-width:1px;stroke-linecap:butt;stroke-linejoin:miter;stroke-opacity:1"
       xml:space="preserve"><tspan
         y="412.66626"
         x="215.89653"
         id="tspan8346"
         sodipodi:role="line">clk50m</tspan></text>
    <rect
       style="color:#000000;clip-rule:nonzero;display:inline;overflow:visible;visibility:visible;opacity:1;isolation:auto;mix-blend-mode:normal;color-interpolation:sRGB;color-interpolation-filters:linearRGB;solid-color:#000000;solid-opacity:1;fill:none;fill-opacity:1;fill-rule:evenodd;stroke:#000000;stroke-width:1;stroke-linecap:butt;stroke-linejoin:miter;stroke-miterlimit:4;stroke-dasharray:2.00000001, 2.00000001;stroke-dashoffset:0;stroke-opacity:1;color-rendering:auto;image-rendering:auto;shape-rendering:auto;text-rendering:auto;enable-background:accumulate"
       id="rect12651"
       width="159.44882"
       height="106.29921"
       x="354.33072"
       y="467.71655" />
    <text
       sodipodi:linespacing="125%"
       id="text12653"
       y="478.71362"
       x="355.12881"
       style="font-style:normal;font-weight:normal;font-size:12.5px;line-height:125%;font-family:sans-serif;letter-spacing:0px;word-spacing:0px;fill:#000000;fill-opacity:1;stroke:none;stroke-width:1px;stroke-linecap:butt;stroke-linejoin:miter;stroke-opacity:1"
       xml:space="preserve"><tspan
         y="478.71362"
         x="355.12881"
         id="tspan12655"
         sodipodi:role="line">Prescaler</tspan><tspan
         y="494.33865"
         x="355.12881"
         sodipodi:role="line"
         id="tspan12693">Divide 50MHz clock</tspan><tspan
         y="509.96365"
         x="355.12881"
         sodipodi:role="line"
         id="tspan12695">24 bit prescaler value</tspan><tspan
         y="525.58862"
         x="355.12881"
         sodipodi:role="line"
         id="tspan12699">--&gt; {SW[9:0], 14'd0}</tspan></text>
    <rect
       y="768.89746"
       x="336.61417"
       height="124.01591"
       width="159.44882"
       id="rect12657"
       style="color:#000000;clip-rule:nonzero;display:inline;overflow:visible;visibility:visible;opacity:0.5;isolation:auto;mix-blend-mode:normal;color-interpolation:sRGB;color-interpolation-filters:linearRGB;solid-color:#000000;solid-opacity:1;fill:#0000ff;fill-opacity:1;fill-rule:evenodd;stroke:#000000;stroke-width:1;stroke-linecap:butt;stroke-linejoin:miter;stroke-miterlimit:4;stroke-dasharray:none;stroke-dashoffset:0;stroke-opacity:1;color-rendering:auto;image-rendering:auto;shape-rendering:auto;text-rendering:auto;enable-background:accumulate" />
    <text
       xml:space="preserve"
       style="font-style:normal;font-weight:normal;font-size:12.5px;line-height:125%;font-family:sans-serif;letter-spacing:0px;word-spacing:0px;fill:#000000;fill-opacity:1;stroke:none;stroke-width:1px;stroke-linecap:butt;stroke-linejoin:miter;stroke-opacity:1"
       x="337.41226"
       y="779.89453"
       id="text12659"
       sodipodi:linespacing="125%"><tspan
         sodipodi:role="line"
         id="tspan12661"
         x="337.41226"
         y="779.89453">Memory</tspan><tspan
         sodipodi:role="line"
         x="337.41226"
         y="795.51953"
         id="tspan12681">10bit</tspan><tspan
         sodipodi:role="line"
         x="337.41226"
         y="811.14453"
         id="tspan12683">32 elements deep</tspan></text>
    <rect
       style="color:#000000;clip-rule:nonzero;display:inline;overflow:visible;visibility:visible;opacity:1;isolation:auto;mix-blend-mode:normal;color-interpolation:sRGB;color-interpolation-filters:linearRGB;solid-color:#000000;solid-opacity:1;fill:none;fill-opacity:1;fill-rule:evenodd;stroke:#000000;stroke-width:1;stroke-linecap:butt;stroke-linejoin:miter;stroke-miterlimit:4;stroke-dasharray:none;stroke-dashoffset:0;stroke-opacity:1;color-rendering:auto;image-rendering:auto;shape-rendering:auto;text-rendering:auto;enable-background:accumulate"
       id="rect12663"
       width="372.04721"
       height="248.03148"
       x="336.61417"
       y="450" />
    <text
       sodipodi:linespacing="125%"
       id="text12665"
       y="460.99707"
       x="337.4794"
       style="font-style:normal;font-weight:normal;font-size:12.5px;line-height:125%;font-family:sans-serif;letter-spacing:0px;word-spacing:0px;fill:#000000;fill-opacity:1;stroke:none;stroke-width:1px;stroke-linecap:butt;stroke-linejoin:miter;stroke-opacity:1"
       xml:space="preserve"><tspan
         y="460.99707"
         x="337.4794"
         id="tspan12667"
         sodipodi:role="line">addr_control</tspan></text>
    <path
       style="fill:none;fill-rule:evenodd;stroke:#000000;stroke-width:1px;stroke-linecap:butt;stroke-linejoin:miter;stroke-opacity:1"
       d="m 921.25983,662.59843 -88.58267,0"
       id="path12669"
       inkscape:connector-curvature="0" />
    <text
       xml:space="preserve"
       style="font-style:normal;font-weight:normal;font-size:12.5px;line-height:125%;font-family:sans-serif;letter-spacing:0px;word-spacing:0px;fill:#000000;fill-opacity:1;stroke:none;stroke-width:1px;stroke-linecap:butt;stroke-linejoin:miter;stroke-opacity:1"
       x="821.53583"
       y="659.56781"
       id="text12671"
       sodipodi:linespacing="125%"><tspan
         sodipodi:role="line"
         id="tspan12673"
         x="821.53583"
         y="659.56781">light_data[9:0]</tspan></text>
    <path
       style="fill:none;fill-rule:evenodd;stroke:#000000;stroke-width:1px;stroke-linecap:butt;stroke-linejoin:miter;stroke-opacity:1"
       d="m 708.66142,591.73229 106.29921,0"
       id="path12675"
       inkscape:connector-curvature="0" />
    <text
       sodipodi:linespacing="125%"
       id="text12677"
       y="588.65051"
       x="709.52008"
       style="font-style:normal;font-weight:normal;font-size:12.5px;line-height:125%;font-family:sans-serif;letter-spacing:0px;word-spacing:0px;fill:#000000;fill-opacity:1;stroke:none;stroke-width:1px;stroke-linecap:butt;stroke-linejoin:miter;stroke-opacity:1"
       xml:space="preserve"><tspan
         y="588.65051"
         x="709.52008"
         id="tspan12679"
         sodipodi:role="line">mem_addr[4:0]</tspan></text>
    <path
       inkscape:connector-curvature="0"
       id="path12685"
       d="m 230.31496,804.33071 106.29921,0"
       style="fill:none;fill-rule:evenodd;stroke:#000000;stroke-width:1px;stroke-linecap:butt;stroke-linejoin:miter;stroke-opacity:1" />
    <text
       xml:space="preserve"
       style="font-style:normal;font-weight:normal;font-size:12.5px;line-height:125%;font-family:sans-serif;letter-spacing:0px;word-spacing:0px;fill:#000000;fill-opacity:1;stroke:none;stroke-width:1px;stroke-linecap:butt;stroke-linejoin:miter;stroke-opacity:1"
       x="231.17363"
       y="801.2489"
       id="text12687"
       sodipodi:linespacing="125%"><tspan
         sodipodi:role="line"
         id="tspan12689"
         x="231.17363"
         y="801.2489">mem_addr[4:0]</tspan></text>
    <path
       style="fill:none;fill-rule:evenodd;stroke:#000000;stroke-width:0.99999994px;stroke-linecap:butt;stroke-linejoin:miter;stroke-opacity:1"
       d="m 496.06298,786.61417 124.01575,0"
       id="path12691"
       inkscape:connector-curvature="0" />
    <path
       style="fill:none;fill-rule:evenodd;stroke:#000000;stroke-width:1px;stroke-linecap:butt;stroke-linejoin:miter;stroke-opacity:1"
       d="m 265.74803,786.61417 70.86614,0"
       id="path12709"
       inkscape:connector-curvature="0" />
    <text
       xml:space="preserve"
       style="font-style:normal;font-weight:normal;font-size:12.5px;line-height:125%;font-family:sans-serif;letter-spacing:0px;word-spacing:0px;fill:#000000;fill-opacity:1;stroke:none;stroke-width:1px;stroke-linecap:butt;stroke-linejoin:miter;stroke-opacity:1"
       x="269.04614"
       y="784.71344"
       id="text12711"
       sodipodi:linespacing="125%"><tspan
         sodipodi:role="line"
         id="tspan12713"
         x="269.04614"
         y="784.71344">clk50m</tspan></text>
    <text
       sodipodi:linespacing="125%"
       id="text12715"
       y="783.72156"
       x="496.93384"
       style="font-style:normal;font-weight:normal;font-size:12.5px;line-height:125%;font-family:sans-serif;letter-spacing:0px;word-spacing:0px;fill:#000000;fill-opacity:1;stroke:none;stroke-width:1px;stroke-linecap:butt;stroke-linejoin:miter;stroke-opacity:1"
       xml:space="preserve"><tspan
         y="783.72156"
         x="496.93384"
         id="tspan12717"
         sodipodi:role="line">light_data[9:0]</tspan></text>
    <path
       style="fill:none;fill-rule:evenodd;stroke:#000000;stroke-width:1px;stroke-linecap:butt;stroke-linejoin:miter;stroke-opacity:1"
       d="m 265.74803,503.14961 70.86614,0"
       id="path12731"
       inkscape:connector-curvature="0" />
    <text
       xml:space="preserve"
       style="font-style:normal;font-weight:normal;font-size:12.5px;line-height:125%;font-family:sans-serif;letter-spacing:0px;word-spacing:0px;fill:#000000;fill-opacity:1;stroke:none;stroke-width:1px;stroke-linecap:butt;stroke-linejoin:miter;stroke-opacity:1"
       x="269.04611"
       y="501.24893"
       id="text12733"
       sodipodi:linespacing="125%"><tspan
         sodipodi:role="line"
         id="tspan12735"
         x="269.04611"
         y="501.24893">rst_n</tspan></text>
    <path
       inkscape:connector-curvature="0"
       id="path12737"
       d="m 265.74803,520.86615 70.86614,0"
       style="fill:none;fill-rule:evenodd;stroke:#000000;stroke-width:1px;stroke-linecap:butt;stroke-linejoin:miter;stroke-opacity:1" />
    <text
       sodipodi:linespacing="125%"
       id="text12739"
       y="518.96545"
       x="269.04611"
       style="font-style:normal;font-weight:normal;font-size:12.5px;line-height:125%;font-family:sans-serif;letter-spacing:0px;word-spacing:0px;fill:#000000;fill-opacity:1;stroke:none;stroke-width:1px;stroke-linecap:butt;stroke-linejoin:miter;stroke-opacity:1"
       xml:space="preserve"><tspan
         y="518.96545"
         x="269.04611"
         id="tspan12741"
         sodipodi:role="line">clk50m</tspan></text>
    <path
       style="fill:none;fill-rule:evenodd;stroke:#000000;stroke-width:1px;stroke-linecap:butt;stroke-linejoin:miter;stroke-opacity:1"
       d="m 336.61417,556.29922 -70.86614,0"
       id="path12743"
       inkscape:connector-curvature="0" />
    <text
       xml:space="preserve"
       style="font-style:normal;font-weight:normal;font-size:12.5px;line-height:125%;font-family:sans-serif;letter-spacing:0px;word-spacing:0px;fill:#000000;fill-opacity:1;stroke:none;stroke-width:1px;stroke-linecap:butt;stroke-linejoin:miter;stroke-opacity:1"
       x="239.04611"
       y="555.60999"
       id="text12745"
       sodipodi:linespacing="125%"><tspan
         sodipodi:role="line"
         id="tspan12747"
         x="239.04611"
         y="555.60999">prescale_value</tspan></text>
    <rect
       y="581.10242"
       x="531.49609"
       height="106.29921"
       width="159.44882"
       id="rect12749"
       style="color:#000000;clip-rule:nonzero;display:inline;overflow:visible;visibility:visible;opacity:1;isolation:auto;mix-blend-mode:normal;color-interpolation:sRGB;color-interpolation-filters:linearRGB;solid-color:#000000;solid-opacity:1;fill:none;fill-opacity:1;fill-rule:evenodd;stroke:#000000;stroke-width:1;stroke-linecap:butt;stroke-linejoin:miter;stroke-miterlimit:4;stroke-dasharray:2.00000001, 2.00000001;stroke-dashoffset:0;stroke-opacity:1;color-rendering:auto;image-rendering:auto;shape-rendering:auto;text-rendering:auto;enable-background:accumulate" />
    <text
       xml:space="preserve"
       style="font-style:normal;font-weight:normal;font-size:12.5px;line-height:125%;font-family:sans-serif;letter-spacing:0px;word-spacing:0px;fill:#000000;fill-opacity:1;stroke:none;stroke-width:1px;stroke-linecap:butt;stroke-linejoin:miter;stroke-opacity:1"
       x="532.29419"
       y="592.09943"
       id="text12751"
       sodipodi:linespacing="125%"><tspan
         sodipodi:role="line"
         id="tspan12753"
         x="532.29419"
         y="592.09943">address counter</tspan><tspan
         id="tspan12759"
         sodipodi:role="line"
         x="532.29419"
         y="607.72443">Increment the address</tspan><tspan
         sodipodi:role="line"
         x="532.29419"
         y="623.34943"
         id="tspan12766">at every enable.</tspan><tspan
         sodipodi:role="line"
         x="532.29419"
         y="638.97443"
         id="tspan12768" /><tspan
         sodipodi:role="line"
         x="532.29419"
         y="654.59943"
         id="tspan12770">Reset to zero once limit</tspan><tspan
         sodipodi:role="line"
         x="532.29419"
         y="670.22443"
         id="tspan12772">is reached</tspan></text>
    <path
       style="fill:none;fill-rule:evenodd;stroke:#000000;stroke-width:1px;stroke-linecap:butt;stroke-linejoin:miter;stroke-opacity:1"
       d="m 442.91339,574.01575 0,53.14961 88.58267,0"
       id="path12774"
       inkscape:connector-curvature="0" />
    <text
       xml:space="preserve"
       style="font-style:normal;font-weight:normal;font-size:12.5px;line-height:125%;font-family:sans-serif;letter-spacing:0px;word-spacing:0px;fill:#000000;fill-opacity:1;stroke:none;stroke-width:1px;stroke-linecap:butt;stroke-linejoin:miter;stroke-opacity:1"
       x="442.91339"
       y="627.16534"
       id="text12776"
       sodipodi:linespacing="125%"><tspan
         sodipodi:role="line"
         id="tspan12778"
         x="442.91339"
         y="627.16534">addr_cnt_en</tspan></text>
    <path
       style="fill:none;fill-rule:evenodd;stroke:#000000;stroke-width:1px;stroke-linecap:butt;stroke-linejoin:miter;stroke-opacity:1"
       d="m 531.49606,644.88189 -265.74803,0"
       id="path12780"
       inkscape:connector-curvature="0" />
    <text
       xml:space="preserve"
       style="font-style:normal;font-weight:normal;font-size:12.5px;line-height:125%;font-family:sans-serif;letter-spacing:0px;word-spacing:0px;fill:#000000;fill-opacity:1;stroke:none;stroke-width:1px;stroke-linecap:butt;stroke-linejoin:miter;stroke-opacity:1"
       x="239.74802"
       y="640.8819"
       id="text12782"
       sodipodi:linespacing="125%"><tspan
         sodipodi:role="line"
         id="tspan12784"
         x="239.74802"
         y="640.8819">addr_end[4:0]</tspan></text>
    <rect
       style="color:#000000;clip-rule:nonzero;display:inline;overflow:visible;visibility:visible;opacity:0.5;isolation:auto;mix-blend-mode:normal;color-interpolation:sRGB;color-interpolation-filters:linearRGB;solid-color:#000000;solid-opacity:1;fill:#0000ff;fill-opacity:1;fill-rule:evenodd;stroke:#000000;stroke-width:1;stroke-linecap:butt;stroke-linejoin:miter;stroke-miterlimit:4;stroke-dasharray:2, 2;stroke-dashoffset:0;stroke-opacity:1;color-rendering:auto;image-rendering:auto;shape-rendering:auto;text-rendering:auto;enable-background:accumulate"
       id="rect12786"
       width="88.58268"
       height="70.866142"
       x="230.31496"
       y="662.59845" />
    <path
       style="fill:none;fill-rule:evenodd;stroke:#000000;stroke-width:1px;stroke-linecap:butt;stroke-linejoin:miter;stroke-opacity:1"
       d="m 265.74803,644.88189 0,17.71654"
       id="path12788"
       inkscape:connector-curvature="0" />
    <text
       xml:space="preserve"
       style="font-style:normal;font-weight:normal;font-size:12.5px;line-height:125%;font-family:sans-serif;letter-spacing:0px;word-spacing:0px;fill:#000000;fill-opacity:1;stroke:none;stroke-width:1px;stroke-linecap:butt;stroke-linejoin:miter;stroke-opacity:1"
       x="232.31496"
       y="674.31494"
       id="text12790"
       sodipodi:linespacing="125%"><tspan
         sodipodi:role="line"
         id="tspan12792"
         x="232.31496"
         y="674.31494">constant</tspan></text>
    <path
       style="fill:none;fill-rule:evenodd;stroke:#ff0000;stroke-width:1px;stroke-linecap:butt;stroke-linejoin:miter;stroke-opacity:1"
       d="m 779.52756,733.46457 c -1.58019,-1.11367 -3.16037,-2.22735 -4.74056,-3.34102 -0.67343,-0.33672 -1.39383,-0.59251 -2.0203,-1.01016 -1.84831,-1.23221 -0.10078,-1.28788 -3.03046,-2.0203 -0.65333,-0.16333 -1.34687,0 -2.0203,0 -1.01016,0 -2.05047,0.245 -3.03046,0 -0.46197,-0.1155 -0.5584,-0.85957 -1.01015,-1.01015 -0.63888,-0.21296 -1.34687,0 -2.02031,0 -0.67343,0 -1.34687,0 -2.0203,0 -2.35703,0 -4.71405,0 -7.07107,0 -1.68359,0 -3.36718,0 -5.05076,0 -0.67344,0 -1.34687,0 -2.02031,0 -0.33672,0 -0.70898,-0.15059 -1.01015,0 -0.89534,0.44766 -2.1109,2.41741 -3.03046,3.03045 -0.62647,0.41765 -1.48791,0.47776 -2.0203,1.01016 -0.5324,0.53239 -0.59251,1.39383 -1.01016,2.0203 -0.26414,0.39621 -0.79719,0.58424 -1.01015,1.01015 -0.15058,0.30117 0.10648,0.69072 0,1.01016 -0.23809,0.71428 -0.82754,1.28986 -1.01015,2.0203 -0.245,0.97999 0,2.02031 0,3.03046 0,2.0203 0,4.04061 0,6.06091 0,1.61685 -0.234,8.27237 0,9.09138 0.33352,1.16734 1.54206,1.91456 2.0203,3.03045 0.54689,1.27607 0.49455,2.75159 1.01016,4.04061 0.17685,0.44214 0.79719,0.58424 1.01015,1.01016 0.47619,0.95238 0.53396,2.07807 1.01015,3.03045 6.06516,12.13032 -1.59678,-4.34488 4.04061,5.05077 4.92117,8.20194 -0.19295,0.43131 1.01015,4.04061 0.2381,0.71428 0.77206,1.30602 1.01016,2.0203 0.0739,0.22181 0.0751,3.89044 0,4.04061 -1.02289,2.04577 -3.37016,0.59 -5.05077,1.01016 -0.73044,0.18261 -1.28986,0.82754 -2.0203,1.01015 -0.65333,0.16333 -1.34687,0 -2.02031,0 -2.35702,0 -4.71404,0 -7.07107,0 -5.72419,0 -11.44839,0 -17.17259,0 -2.35702,0 -4.71404,0 -7.07107,0 -1.01015,0 -2.0203,0 -3.03045,0 -0.33672,0 -0.70899,-0.15059 -1.01016,0 -0.42591,0.21296 -0.55839,0.85957 -1.01015,1.01015 -4.37357,1.45786 0.37128,-1.9311 -4.04061,1.01015 -0.79243,0.52829 -1.16847,1.59439 -2.0203,2.02031 -0.30117,0.15058 -0.70899,-0.15059 -1.01016,0 -0.42591,0.21296 -0.67343,0.67343 -1.01015,1.01015 -0.33672,0.33672 -0.79719,0.58424 -1.01015,1.01015 -0.15059,0.30117 0,0.67344 0,1.01016 0,0.67343 0.21296,1.38142 0,2.0203 -0.15059,0.45175 -0.85957,0.5584 -1.01015,1.01015 -0.21296,0.63888 0,1.34687 0,2.02031 0,1.68359 0,3.36717 0,5.05076 0,3.36718 0,6.73435 0,10.10153 0,1.01015 -0.16607,2.03405 0,3.03045 0.17505,1.05031 0.8351,1.98016 1.01015,3.03046 0.16607,0.99641 -0.16607,2.03405 0,3.03046 1.47788,8.86729 0.37158,-1.54412 2.0203,5.05076 0.19865,0.79461 0,5.01044 0,6.06092 0,0.24499 0.0325,2.99797 0,3.03046 -0.53239,0.53239 -1.4879,0.47775 -2.0203,1.01015 -0.2381,0.23809 0.28016,0.82337 0,1.01015 -0.88596,0.59064 -2.02031,0.67344 -3.03046,1.01015 -1.01015,0.33672 -2.0203,0.67344 -3.03046,1.01016 -1.01015,0.33671 -2.07807,0.53396 -3.03045,1.01015 -1.08589,0.54294 -1.87871,1.63639 -3.03046,2.0203 -0.95832,0.31944 -2.07215,-0.31944 -3.03046,0 -1.15175,0.38392 -1.97637,1.41797 -3.03046,2.02031 -14.71404,8.40802 4.26179,-2.63597 -7.07107,3.03046 -1.08588,0.54294 -1.98941,1.39568 -3.03045,2.0203 -0.64563,0.38738 -1.41797,0.5584 -2.02031,1.01015 -0.7619,0.57143 -1.34687,1.34687 -2.0203,2.02031 -0.67344,0.67343 -1.34687,1.34687 -2.02031,2.0203 -0.33672,0.33672 -0.79719,0.58424 -1.01015,1.01016 -0.15059,0.30117 0,0.67343 0,1.01015 0,0.67343 0,1.34687 0,2.0203 0,2.02031 0,4.04061 0,6.06092 0,1.20672 -0.23786,6.3575 0,7.07107 0.38392,1.15175 1.29187,2.05921 2.0203,3.03045 1.29363,1.72484 2.78744,3.29632 4.04061,5.05077 0.43763,0.61268 0.47776,1.48791 1.01016,2.0203 1.19047,1.19048 2.85013,1.83998 4.04061,3.03046 1.52455,1.52455 2.63747,3.41377 4.04061,5.05076 0.6198,0.7231 1.34687,1.34687 2.0203,2.02031 1.01015,1.01015 1.8876,2.17331 3.03046,3.03046 5.61935,4.21451 4.13869,2.06934 10.10153,5.05076 1.7561,0.87805 3.20558,2.35948 5.05076,3.03046 0.065,0.0237 11.92418,1.97469 12.12183,2.0203 8.5126,1.96445 5.46782,2.3632 14.14213,3.03046 2.01436,0.15495 4.04061,0 6.06092,0 4.71404,0 9.42809,0 14.14214,0 5.05076,0 10.10152,0 15.15228,0 2.02031,0 4.04509,0.13439 6.06092,0 27.04981,-1.80332 -6.10243,-0.1649 16.16244,-2.02031 1.67777,-0.13981 3.37409,0.15243 5.05076,0 15.72788,-1.4298 -2.63137,-0.4933 11.11168,-2.0203 1.33863,-0.14874 2.69374,0 4.04061,0 4.04061,0 8.08122,0 12.12183,0 2.02031,0 4.04061,0 6.06092,0 1.01015,0 2.0203,0 3.03045,0 0.67344,0 1.38143,-0.21296 2.02031,0 1.42857,0.47619 2.61204,1.54411 4.04061,2.0203 0.63888,0.21296 1.34687,0 2.0203,0 1.34687,0.67344 2.73317,1.2732 4.04061,2.02031 1.0541,0.60234 1.90324,1.56942 3.03046,2.0203 0.62527,0.25011 1.39504,-0.2501 2.02031,0 1.12722,0.45089 1.94457,1.47737 3.03046,2.02031 0.95238,0.47619 2.0203,0.67343 3.03045,1.01015 1.01016,0.33672 1.97389,0.87808 3.03046,1.01015 1.67059,0.20883 3.37747,-0.18592 5.05076,0 1.37983,0.15332 2.66624,0.81382 4.04061,1.01016 1,0.14285 2.02031,0 3.03046,0 1.34687,0 2.69374,0 4.04061,0 3.03046,0 6.06092,0 9.09137,0 1.01016,0 2.12695,0.45175 3.03046,0 0.67344,-0.33672 0.67344,-1.34687 1.01015,-2.02031 0.33672,-0.67343 0.73053,-1.32123 1.01016,-2.0203 0.39545,-0.98864 0.8351,-1.98015 1.01015,-3.03046 0.22604,-1.35626 0,-6.54917 0,-8.08122 0,-4.71405 0,-9.42809 0,-14.14214 0,-0.68409 -0.1534,-6.61088 0,-7.07107 0.30117,-0.9035 1.59439,-1.16846 2.0203,-2.0203 0.47619,-0.95238 0.53397,-2.07808 1.01016,-3.03046 0.21296,-0.42592 0.67343,-0.67343 1.01015,-1.01015 0.67343,-0.67344 1.34687,-1.34687 2.0203,-2.02031 1.68359,-1.68358 3.36718,-3.36717 5.05077,-5.05076 0.33671,-0.33672 0.79719,-0.58423 1.01015,-1.01015 0.15058,-0.30117 0,-0.67344 0,-1.01015 0.33672,-0.67344 0.5584,-1.41797 1.01015,-2.02031 0.57143,-0.7619 1.59439,-1.16847 2.02031,-2.0203 0.30117,-0.60234 0,-1.34687 0,-2.02031 0,-4 0,-2.06091 0,-6.06091 0,-4.04061 0,-8.08122 0,-12.12183 0,-1.01016 0,-2.02031 0,-3.03046 0,-1.01015 0.31944,-2.07215 0,-3.03046 -0.38392,-1.15175 -1.47737,-1.94458 -2.02031,-3.03046 -0.47619,-0.95238 -0.46232,-2.1174 -1.01015,-3.03046 -0.49,-0.81666 -1.44888,-1.2584 -2.02031,-2.0203 -0.45175,-0.60234 -0.5925,-1.39384 -1.01015,-2.02031 -0.93388,-1.40082 -2.16426,-2.59694 -3.03046,-4.04061 -0.17324,-0.28873 0.18678,-0.72998 0,-1.01015 -1.61004,-2.41506 -2.33962,-1.27728 -3.03045,-4.04061 0,-4.5985 0.47619,-0.0578 -1.01016,-3.03046 -0.15058,-0.30117 0,-0.67343 0,-1.01015 0,-0.67343 0,-1.34687 0,-2.0203 0,-2.35703 0,-4.71405 0,-7.07107 0,-0.67344 0.16334,-1.36698 0,-2.02031 -0.18261,-0.73044 -0.73052,-1.32123 -1.01015,-2.0203 -0.82137,-2.05342 -0.83581,-3.27402 -2.0203,-5.05076 -0.26415,-0.39622 -0.71268,-0.63831 -1.01016,-1.01016 -1.05172,-1.31466 -1.83998,-2.85013 -3.03045,-4.04061 -0.5324,-0.53239 -1.39384,-0.5925 -2.02031,-1.01015 -1.40083,-0.93389 -2.59694,-2.16426 -4.04061,-3.03046 -4.14547,-2.48728 -9.66297,-4.56786 -14.14213,-6.06091 -1.31708,-0.43903 -2.71084,-0.61122 -4.04061,-1.01016 -2.03978,-0.61193 -4.04061,-1.34687 -6.06092,-2.0203 -1.01015,-0.33672 -2.05176,-0.59071 -3.03046,-1.01015 -1.38409,-0.59318 -2.69374,-1.34687 -4.04061,-2.02031 -1.34687,-0.67343 -2.78767,-1.18501 -4.04061,-2.0203 -2.00117,0.10083 -0.47775,-1.48791 -1.01015,-2.02031 -0.2381,-0.23809 -0.85957,0.30117 -1.01015,0 -0.45176,-0.90351 0.45175,-2.12695 0,-3.03046 -0.21296,-0.42591 -0.7972,-0.58423 -1.01016,-1.01015 -0.30116,-0.60234 0.47619,-1.54411 0,-2.0203 -0.23809,-0.2381 -0.77205,0.23809 -1.01015,0 -0.47619,-0.47619 0.21296,-1.38143 0,-2.02031 -0.23809,-0.71428 -0.77206,-1.30602 -1.01015,-2.0203 -0.10648,-0.31944 0.15058,-0.70899 0,-1.01016 -2.31154,-4.62307 0.41868,4.2865 -2.02031,-3.03045 -1.00235,-3.00706 2.39191,2.07263 -1.01015,-3.03046 -0.26414,-0.39622 -0.74601,-0.61394 -1.01015,-1.01015 -0.41765,-0.62647 -0.59251,-1.39384 -1.01015,-2.02031 -0.26415,-0.39621 -0.7972,-0.58423 -1.01016,-1.01015 -0.15058,-0.30117 0.15059,-0.70898 0,-1.01015 -1.11675,-2.23351 -0.62694,-0.31348 -2.0203,-1.01016 -0.42592,-0.21296 -0.58424,-0.79719 -1.01015,-1.01015 -0.80813,-0.40406 -2.22234,0.40406 -3.03046,0 -0.42592,-0.21296 -0.5584,-0.85957 -1.01015,-1.01015 -0.90648,-0.63888 -2.07215,0.31944 -3.03046,0 -0.71429,-0.2381 -1.30602,-0.77206 -2.02031,-1.01015 -0.58515,-0.19506 -3.16522,0 -4.04061,0 -0.74153,0 -5.70875,0.17608 -6.06091,0 -0.42592,-0.21296 -0.58424,-0.7972 -1.01015,-1.01016 -0.80813,-0.40406 -2.22234,0.40406 -3.03046,0 -3.35026,-3.35025 0.95238,0.47619 -2.02031,-1.01015 -0.42591,-0.21296 -0.58423,-0.79719 -1.01015,-1.01015 -1.07789,-0.53895 -0.94241,0.53895 -2.0203,0 -0.42592,-0.21296 -0.58424,-0.7972 -1.01016,-1.01015 -0.60234,-0.30117 -1.54411,0.47619 -2.0203,0 -0.2381,-0.2381 0.23809,-0.77206 0,-1.01016 -0.2381,-0.23809 -0.67429,-0.024 -1.01016,0 -1.11551,0.0796 -2.22711,0.20705 -3.34066,0.31057 z"
       id="path12794"
       inkscape:connector-curvature="0" />
    <text
       xml:space="preserve"
       style="font-style:normal;font-weight:normal;font-size:12.5px;line-height:125%;font-family:sans-serif;letter-spacing:0px;word-spacing:0px;fill:#000000;fill-opacity:1;stroke:none;stroke-width:1px;stroke-linecap:butt;stroke-linejoin:miter;stroke-opacity:1"
       x="708.66144"
       y="804.33069"
       id="text12796"
       sodipodi:linespacing="125%"><tspan
         sodipodi:role="line"
         id="tspan12798"
         x="708.66144"
         y="804.33069">edge_detect</tspan><tspan
         sodipodi:role="line"
         x="708.66144"
         y="819.95569"
         id="tspan12800">upcounter</tspan><tspan
         sodipodi:role="line"
         x="708.66144"
         y="835.58069"
         id="tspan12802">sevenseg</tspan><tspan
         sodipodi:role="line"
         x="708.66144"
         y="851.20569"
         id="tspan12804" /><tspan
         sodipodi:role="line"
         x="708.66144"
         y="866.83069"
         id="tspan12806"
         style="fill:#ff0000">Count the number of hits:</tspan><tspan
         sodipodi:role="line"
         x="708.66144"
         y="882.45569"
         id="tspan12808"
         style="fill:#ff0000">KEY[0] pushed when LEDR[4]</tspan><tspan
         sodipodi:role="line"
         x="708.66144"
         y="898.08069"
         id="tspan12810"
         style="fill:#ff0000">is active!</tspan></text>
  </g>
</svg>
